# xmcd
#
# Track frame offsets:
#	150
#	13543
#	30269
#	47902
#	60476
#	73309
#	87266
#	99867
#	114890
#	131079
#	144305
#	160608
#
# Disc length: 2336 seconds
#
# Revision: 1
# Processed by: cddbd v1.5.2PL0 Copyright (c) Steve Scherf et al.
# Submitted via: audiograbber 1.83.01
#
DISCID=90091e0c
DTITLE=Old Dominion - Happy Endings
DYEAR=2017
DGENRE=Country
TTITLE0=No Such Things As A Broken Heart
TTITLE1=Shoe Shopping
TTITLE2=Not Everything's About You
TTITLE3=Hotel Key
TTITLE4=Be With Me
TTITLE5=Written In The Sand
TTITLE6=So You Go
TTITLE7=Stars In The City ( feat. Little Big Town )
TTITLE8=New York At Night
TTITLE9=A Girl Is A Gun
TTITLE10=Still Writing Songs About You
TTITLE11=Can't Get You  ( Live )
EXTD=when I grabbed this cd song 10 is titled wrong it should be   A GIRL IS A 
EXTD=GUN
EXTT0=
EXTT1=
EXTT2=
EXTT3=
EXTT4=
EXTT5=
EXTT6=
EXTT7=
EXTT8=
EXTT9=
EXTT10=
EXTT11=
PLAYORDER=
